# xmcd CD database file
#
# Track frame offsets:
#	150
#	89047
#	126534
#	162113
#	197479
#	242022
#	268820
#	298137
#
# Disc length: 4467 seconds
#
# Revision: 0
# Processed by: cddbd v1.5.2PL0 Copyright (c) Steve Scherf et al.
# Submitted via: CDex 1.51
#
DISCID=7a117108
DTITLE=The Bryce Rohde Trio - Short Way Home
DYEAR=2002
DGENRE=Jazz
TTITLE0=Medley: Ballads From "Turn Right At New South Wales and "Eleventh Hour"
TTITLE1=Getting To Each Other
TTITLE2=Windows Of Arques
TTITLE3=Autoctopus
TTITLE4=Soft Sounds - Taste Of Wine
TTITLE5=Gin From A Foreign Country
TTITLE6=Lydia
TTITLE7=Short Way Home
EXTD=YEAR: 2002
EXTT0=
EXTT1=
EXTT2=
EXTT3=
EXTT4=
EXTT5=
EXTT6=
EXTT7=
PLAYORDER=
